<svg xmlns="http://www.w3.org/2000/svg" width="512" height="512" viewBox="0 0 512 512" fill="none">
  <defs>
    <linearGradient id="bg" x1="64" y1="64" x2="448" y2="448" gradientUnits="userSpaceOnUse">
      <stop stop-color="#4F86FF"/>
      <stop offset="1" stop-color="#2F63E8"/>
    </linearGradient>
    <filter id="shadow" x="66" y="102" width="380" height="280" color-interpolation-filters="sRGB">
      <feDropShadow dx="0" dy="14" stdDeviation="18" flood-color="#0A1E59" flood-opacity="0.28"/>
    </filter>
  </defs>
  <rect x="64" y="64" width="384" height="384" rx="96" fill="url(#bg)"/>
  <g filter="url(#shadow)">
    <rect x="142" y="138" width="214" height="196" rx="24" fill="#EEF4FF" stroke="#B7CBFF" stroke-width="4"/>
    <rect x="214" y="118" width="70" height="32" rx="14" fill="#D7E4FF" stroke="#B7CBFF" stroke-width="4"/>
    <path d="M170 188H328" stroke="#C6D8FF" stroke-width="4"/>
    <path d="M170 228H328" stroke="#C6D8FF" stroke-width="4"/>
    <path d="M170 268H328" stroke="#C6D8FF" stroke-width="4"/>
    <path d="M210 168V314" stroke="#C6D8FF" stroke-width="4"/>
    <path d="M250 168V314" stroke="#C6D8FF" stroke-width="4"/>
    <path d="M290 168V314" stroke="#C6D8FF" stroke-width="4"/>
    <rect x="177" y="198" width="31" height="28" rx="6" fill="#FFD36B"/>
    <rect x="218" y="198" width="31" height="28" rx="6" fill="#8CC8FF"/>
    <rect x="259" y="238" width="31" height="28" rx="6" fill="#A9D7A7"/>
    <rect x="300" y="278" width="31" height="28" rx="6" fill="#FFD36B"/>
    <g>
      <rect x="92" y="306" width="118" height="34" rx="10" fill="#F0B22B" stroke="#9D640E" stroke-width="4"/>
      <rect x="92" y="278" width="54" height="34" rx="10" fill="#F0B22B" stroke="#9D640E" stroke-width="4"/>
      <rect x="146" y="286" width="28" height="26" rx="6" fill="#DDE9FF" stroke="#7CA5FF" stroke-width="3"/>
      <circle cx="122" cy="345" r="14" fill="#1E2E5C"/>
      <circle cx="178" cy="345" r="14" fill="#1E2E5C"/>
    </g>
    <g>
      <rect x="320" y="278" width="88" height="56" rx="10" fill="#F0B22B" stroke="#9D640E" stroke-width="4"/>
      <path d="M336 292H392" stroke="#9D640E" stroke-width="4"/>
      <path d="M336 306H392" stroke="#9D640E" stroke-width="4"/>
      <path d="M336 320H392" stroke="#9D640E" stroke-width="4"/>
    </g>
  </g>
</svg>
