<svg xmlns="http://www.w3.org/2000/svg" width="512" height="512" viewBox="0 0 512 512" fill="none">
  <defs>
    <linearGradient id="bg" x1="64" y1="64" x2="448" y2="448" gradientUnits="userSpaceOnUse">
      <stop stop-color="#4F86FF"/>
      <stop offset="1" stop-color="#2F63E8"/>
    </linearGradient>
    <linearGradient id="wood" x1="130" y1="170" x2="365" y2="320" gradientUnits="userSpaceOnUse">
      <stop stop-color="#F4C15D"/>
      <stop offset="1" stop-color="#C9892E"/>
    </linearGradient>
    <filter id="shadow" x="72" y="98" width="368" height="284" color-interpolation-filters="sRGB">
      <feDropShadow dx="0" dy="14" stdDeviation="18" flood-color="#0A1E59" flood-opacity="0.28"/>
    </filter>
  </defs>
  <rect x="64" y="64" width="384" height="384" rx="96" fill="url(#bg)"/>
  <g filter="url(#shadow)">
    <rect x="120" y="278" width="272" height="24" rx="8" fill="#9D6322" opacity="0.55"/>
    <rect x="130" y="210" width="235" height="38" rx="10" fill="url(#wood)" stroke="#8C5B1D" stroke-width="4"/>
    <rect x="148" y="200" width="48" height="56" rx="8" fill="url(#wood)" stroke="#8C5B1D" stroke-width="4"/>
    <rect x="232" y="200" width="48" height="56" rx="8" fill="url(#wood)" stroke="#8C5B1D" stroke-width="4"/>
    <rect x="316" y="200" width="48" height="56" rx="8" fill="url(#wood)" stroke="#8C5B1D" stroke-width="4"/>
    <rect x="120" y="256" width="272" height="26" rx="10" fill="url(#wood)" stroke="#8C5B1D" stroke-width="4"/>
    <rect x="144" y="286" width="42" height="42" rx="8" fill="url(#wood)" stroke="#8C5B1D" stroke-width="4"/>
    <rect x="235" y="286" width="42" height="42" rx="8" fill="url(#wood)" stroke="#8C5B1D" stroke-width="4"/>
    <rect x="326" y="286" width="42" height="42" rx="8" fill="url(#wood)" stroke="#8C5B1D" stroke-width="4"/>
  </g>
</svg>
